<svg xmlns="http://www.w3.org/2000/svg" width="105" height="107" viewBox="0 0 105 107">
  <g id="Rectangle_109" data-name="Rectangle 109" fill="rgba(25,210,178,0.52)" stroke="#000" stroke-width="3">
    <rect width="105" height="107" stroke="none"/>
    <rect x="1.5" y="1.5" width="102" height="104" fill="none"/>
  </g>
  <g id="Polygone_3" data-name="Polygone 3" transform="translate(74 42) rotate(-180)">
    <path d="M 41.16288757324219 38.5 L 0.837113082408905 38.5 L 21 1.054638624191284 L 41.16288757324219 38.5 Z" stroke="none"/>
    <path d="M 21 2.109256744384766 L 1.674217224121094 38 L 40.32578277587891 38 L 21 2.109256744384766 M 21 0 L 42 39 L 0 39 L 21 0 Z" stroke="none" fill="#030101"/>
  </g>
  <g id="Polygone_4" data-name="Polygone 4" transform="translate(32 71)">
    <path d="M 41.12947845458984 35.5 L 0.8705216646194458 35.5 L 21 0.9923228621482849 L 41.12947845458984 35.5 Z" stroke="none"/>
    <path d="M 21 1.984634399414063 L 1.741039276123047 35 L 40.25896072387695 35 L 21 1.984634399414063 M 21 0 L 42 36 L 0 36 L 21 0 Z" stroke="none"/>
  </g>
  <text id="E-composant" transform="translate(20 61)" font-size="10" font-family="SourceCodePro-Regular, Source Code Pro"><tspan x="0" y="0">E-composant</tspan></text>
  <line id="Ligne_17" data-name="Ligne 17" x2="64" transform="translate(22.5 41.99)" fill="none" stroke="#000" stroke-width="1"/>
  <line id="Ligne_18" data-name="Ligne 18" x2="64" transform="translate(22.5 70.77)" fill="none" stroke="#000" stroke-width="1"/>
</svg>
